<svg width="64" height="64" viewBox="0 0 64 64" fill="none" xmlns="http://www.w3.org/2000/svg">
<g id="logo">
<g id="one">
<path id="Subtract" fill-rule="evenodd" clip-rule="evenodd" d="M30 0H0V30H30V0ZM17 5H12V25H17V5Z" fill="#FF1744"/>
</g>
<g id="one">
<path id="Subtract_2" fill-rule="evenodd" clip-rule="evenodd" d="M64 34H34V64H64V34ZM51 39H46V59H51V39Z" fill="#FF1744"/>
</g>
<g id="zero">
<path id="Subtract_3" fill-rule="evenodd" clip-rule="evenodd" d="M64 0H34V30H64V0ZM49 25C51.7614 25 54 20.5228 54 15C54 9.47715 51.7614 5 49 5C46.2386 5 44 9.47715 44 15C44 20.5228 46.2386 25 49 25Z" fill="white"/>
</g>
<g id="zero">
<path id="Subtract_4" fill-rule="evenodd" clip-rule="evenodd" d="M30 34H0V64H30V34ZM15 59C17.7614 59 20 54.5228 20 49C20 43.4772 17.7614 39 15 39C12.2386 39 10 43.4772 10 49C10 54.5228 12.2386 59 15 59Z" fill="white"/>
</g>
</g>
</svg>
